#File written by LIBUNFOLD3D. Compilation :Jun 29 2015,14:16:05
mtllib yuanzhuti.mtl
#begin vertices
v -2.385 0 1.6875
v -2.385 0 1.6875
v -2.385 0 1.6875
v -2.288305 -0.672215 1.6875
v -2.288305 -0.672215 1.6875
v -2.006585 -1.289097 1.6875
v -2.006585 -1.289097 1.6875
v -1.561917 -1.802384 1.6875
v -1.561917 -1.802384 1.6875
v -0.991328 -2.169198 1.6875
v -0.991328 -2.169198 1.6875
v -0.339528 -2.360687 1.6875
v -0.339528 -2.360687 1.6875
v 0.339617 -2.360677 1.6875
v 0.339617 -2.360677 1.6875
v 0.990532 -2.169562 1.6875
v 0.990532 -2.169562 1.6875
v 1.560648 -1.803483 1.6875
v 1.560648 -1.803483 1.6875
v 2.005251 -1.291178 1.6875
v 2.005251 -1.291178 1.6875
v 2.287868 -0.673701 1.6875
v 2.287868 -0.673701 1.6875
v 2.360616 -0.340162 1.6875
v 2.360616 -0.340162 1.6875
v 2.385 0 1.6875
v 2.385 0 1.6875
v 2.385 0 1.6875
v 2.385 0 -1.6875
v 2.385 0 -1.6875
v 2.385 0 -1.6875
v 2.288305 -0.672215 -1.6875
v 2.288305 -0.672215 -1.6875
v 2.006585 -1.289097 -1.6875
v 2.006585 -1.289097 -1.6875
v 1.561917 -1.802384 -1.6875
v 1.561917 -1.802384 -1.6875
v 0.991328 -2.169198 -1.6875
v 0.991328 -2.169198 -1.6875
v 0.339528 -2.360687 -1.6875
v 0.339528 -2.360687 -1.6875
v -0.339617 -2.360677 -1.6875
v -0.339617 -2.360677 -1.6875
v -0.990532 -2.169562 -1.6875
v -0.990532 -2.169562 -1.6875
v -1.560648 -1.803483 -1.6875
v -1.560648 -1.803483 -1.6875
v -2.005251 -1.291178 -1.6875
v -2.005251 -1.291178 -1.6875
v -2.287868 -0.673701 -1.6875
v -2.287868 -0.673701 -1.6875
v -2.360616 -0.340162 -1.6875
v -2.360616 -0.340162 -1.6875
v -2.385 -0 -1.6875
v -2.385 -0 -1.6875
v -2.385 -0 -1.6875
v -2.360616 0.340162 1.6875
v -2.360616 0.340162 1.6875
v -2.287868 0.673701 1.6875
v -2.287868 0.673701 1.6875
v -2.005251 1.291178 1.6875
v -2.005251 1.291178 1.6875
v -1.560648 1.803483 1.6875
v -1.560648 1.803483 1.6875
v -0.990532 2.169562 1.6875
v -0.990532 2.169562 1.6875
v -0.339617 2.360677 1.6875
v -0.339617 2.360677 1.6875
v 0.339528 2.360687 1.6875
v 0.339528 2.360687 1.6875
v 0.991328 2.169198 1.6875
v 0.991328 2.169198 1.6875
v 1.561917 1.802384 1.6875
v 1.561917 1.802384 1.6875
v 2.006585 1.289097 1.6875
v 2.006585 1.289097 1.6875
v 2.288305 0.672215 1.6875
v 2.288305 0.672215 1.6875
v -2.288305 0.672215 -1.6875
v -2.288305 0.672215 -1.6875
v -2.006585 1.289097 -1.6875
v -2.006585 1.289097 -1.6875
v -1.561917 1.802384 -1.6875
v -1.561917 1.802384 -1.6875
v -0.991328 2.169198 -1.6875
v -0.991328 2.169198 -1.6875
v -0.339528 2.360687 -1.6875
v -0.339528 2.360687 -1.6875
v 0.339617 2.360677 -1.6875
v 0.339617 2.360677 -1.6875
v 0.990532 2.169562 -1.6875
v 0.990532 2.169562 -1.6875
v 1.560648 1.803483 -1.6875
v 1.560648 1.803483 -1.6875
v 2.005251 1.291178 -1.6875
v 2.005251 1.291178 -1.6875
v 2.287868 0.673701 -1.6875
v 2.287868 0.673701 -1.6875
v 2.360616 0.340162 -1.6875
v 2.360616 0.340162 -1.6875
#end vertices

#begin 100 textures vertices 
vt 0.02201714 0.1950804 0
vt 0.6052651 0.25 0
vt 0.5879301 0.1950808 0
vt 0.02200249 0.2505305 0
vt 0.6131602 0.1951137 0
vt 0.02197339 0.3059026 0
vt 0.6361626 0.1447454 0
vt 0.02194424 0.361352 0
vt 0.6724697 0.1028356 0
vt 0.02191512 0.4167372 0
vt 0.7190582 0.07288528 0
vt 0.02188596 0.4722057 0
vt 0.7722776 0.05725023 0
vt 0.02185679 0.5276578 0
vt 0.8277297 0.05725104 0
vt 0.02182766 0.5830483 0
vt 0.8808768 0.07285556 0
vt 0.02179857 0.6383685 0
vt 0.9274267 0.1027459 0
vt 0.02176946 0.6937539 0
vt 0.9637285 0.1445755 0
vt 0.02174032 0.7492007 0
vt 0.9868041 0.1949924 0
vt 0.02172577 0.7770743 0
vt 0.992744 0.2222258 0
vt 0.02172556 0.8049198 0
vt 0.9947349 0.25 0
vt 0.5876382 0.8049213 0
vt 0.2972936 0.8049218 0
vt 0.3120699 0.8049192 0
vt 0.6052651 0.75 0
vt 0.2973082 0.7494706 0
vt 0.6131602 0.6951137 0
vt 0.2973373 0.6940984 0
vt 0.6361626 0.6447454 0
vt 0.2973665 0.638649 0
vt 0.6724697 0.6028356 0
vt 0.2973956 0.5832639 0
vt 0.7190582 0.5728853 0
vt 0.2974248 0.5277954 0
vt 0.7722776 0.5572502 0
vt 0.297454 0.4723433 0
vt 0.8277297 0.557251 0
vt 0.2974831 0.4169527 0
vt 0.8808768 0.5728556 0
vt 0.2975122 0.3616325 0
vt 0.9274267 0.6027459 0
vt 0.2975413 0.3062472 0
vt 0.9637285 0.6445755 0
vt 0.2975704 0.2508004 0
vt 0.9868041 0.6949924 0
vt 0.297585 0.2229267 0
vt 0.992744 0.7222258 0
vt 0.2975852 0.1950802 0
vt 0.3123618 0.1950787 0
vt 0.9947349 0.75 0
vt 0.607256 0.2777742 0
vt 0.5879298 0.2229263 0
vt 0.6131959 0.3050076 0
vt 0.5879153 0.2507999 0
vt 0.6362715 0.3554245 0
vt 0.5878861 0.3062468 0
vt 0.6725733 0.3972541 0
vt 0.587857 0.3616321 0
vt 0.7191232 0.4271444 0
vt 0.5878279 0.4169523 0
vt 0.7722703 0.442749 0
vt 0.5877987 0.4723429 0
vt 0.8277224 0.4427498 0
vt 0.5877695 0.5277949 0
vt 0.8809418 0.4271147 0
vt 0.5877403 0.5832635 0
vt 0.9275303 0.3971644 0
vt 0.5877112 0.6386486 0
vt 0.9638374 0.3552546 0
vt 0.587682 0.694098 0
vt 0.9868398 0.3048863 0
vt 0.5876529 0.7494702 0
vt 0.3123471 0.2505298 0
vt 0.9868398 0.8048863 0
vt 0.312318 0.305902 0
vt 0.9638374 0.8552546 0
vt 0.3122888 0.3613514 0
vt 0.9275303 0.8971644 0
vt 0.3122597 0.4167365 0
vt 0.8809418 0.9271147 0
vt 0.3122305 0.4722051 0
vt 0.8277224 0.9427498 0
vt 0.3122013 0.5276571 0
vt 0.7722703 0.942749 0
vt 0.3121721 0.5830477 0
vt 0.7191232 0.9271444 0
vt 0.312143 0.6383679 0
vt 0.6725733 0.8972541 0
vt 0.3121139 0.6937532 0
vt 0.6362715 0.8554245 0
vt 0.3120847 0.7492001 0
vt 0.6131959 0.8050076 0
vt 0.3120702 0.7770737 0
vt 0.607256 0.7777742 0
#end 100 textures vertices 

#begin 100 normals 
vn -1 -0 0
vn 0 0 1
vn -1 -0 0
vn -0.95945 -0.281879 0
vn 0 0 1
vn -0.841319 -0.540539 0
vn 0 0 1
vn -0.654866 -0.755745 0
vn 0 0 1
vn -0.41563 -0.909534 0
vn 0 0 1
vn -0.142351 -0.989816 0
vn 0 0 1
vn 0.142389 -0.989811 0
vn 0 0 1
vn 0.415296 -0.909686 0
vn 0 0 1
vn 0.654334 -0.756206 0
vn 0 0 1
vn 0.840758 -0.541411 0
vn 0 0 1
vn 0.959267 -0.282502 0
vn 0 0 1
vn 0.989774 -0.142642 0
vn 0 0 1
vn 1 0 0
vn 0 0 1
vn 1 0 0
vn 1 0 0
vn 1 0 0
vn 0 0 -1
vn 0.95945 -0.281879 0
vn 0 0 -1
vn 0.841319 -0.540539 0
vn 0 0 -1
vn 0.654866 -0.755745 0
vn 0 0 -1
vn 0.41563 -0.909534 0
vn 0 0 -1
vn 0.142351 -0.989816 0
vn 0 0 -1
vn -0.142389 -0.989811 0
vn 0 0 -1
vn -0.415296 -0.909686 0
vn 0 0 -1
vn -0.654334 -0.756206 0
vn 0 0 -1
vn -0.840758 -0.541411 0
vn 0 0 -1
vn -0.959267 -0.282502 0
vn 0 0 -1
vn -0.989774 -0.142642 0
vn 0 0 -1
vn -1 -0 0
vn -1 -0 0
vn 0 0 -1
vn 0 0 1
vn -0.989774 0.142642 0
vn 0 0 1
vn -0.959267 0.282502 0
vn 0 0 1
vn -0.840758 0.541411 0
vn 0 0 1
vn -0.654334 0.756206 0
vn 0 0 1
vn -0.415296 0.909686 0
vn 0 0 1
vn -0.142389 0.989811 0
vn 0 0 1
vn 0.142351 0.989816 0
vn 0 0 1
vn 0.41563 0.909534 0
vn 0 0 1
vn 0.654866 0.755745 0
vn 0 0 1
vn 0.841319 0.540539 0
vn 0 0 1
vn 0.95945 0.281879 0
vn -0.95945 0.281879 0
vn 0 0 -1
vn -0.841319 0.540539 0
vn 0 0 -1
vn -0.654866 0.755745 0
vn 0 0 -1
vn -0.41563 0.909534 0
vn 0 0 -1
vn -0.142351 0.989816 0
vn 0 0 -1
vn 0.142389 0.989811 0
vn 0 0 -1
vn 0.415296 0.909686 0
vn 0 0 -1
vn 0.654334 0.756206 0
vn 0 0 -1
vn 0.840758 0.541411 0
vn 0 0 -1
vn 0.959267 0.282502 0
vn 0 0 -1
vn 0.989774 0.142642 0
vn 0 0 -1
#end 100 normals 

#begin 92 faces
usemtl MTL0
g 1
f 27/27/27 2/2/2 5/5/5 
f 52/52/52 4/4/4 1/1/1 
f 77/77/77 2/2/2 27/27/27 
f 54/54/54 52/52/52 1/1/1 
f 58/58/58 55/55/55 3/3/3 
f 77/77/77 57/57/57 2/2/2 
f 23/23/23 5/5/5 7/7/7 
f 50/50/50 6/6/6 4/4/4 
f 25/25/25 5/5/5 23/23/23 
f 27/27/27 5/5/5 25/25/25 
f 52/52/52 50/50/50 4/4/4 
f 21/21/21 7/7/7 9/9/9 
f 48/48/48 8/8/8 6/6/6 
f 23/23/23 7/7/7 21/21/21 
f 50/50/50 48/48/48 6/6/6 
f 19/19/19 9/9/9 11/11/11 
f 46/46/46 10/10/10 8/8/8 
f 21/21/21 9/9/9 19/19/19 
f 48/48/48 46/46/46 8/8/8 
f 17/17/17 11/11/11 13/13/13 
f 42/42/42 12/12/12 10/10/10 
f 19/19/19 11/11/11 17/17/17 
f 44/44/44 42/42/42 10/10/10 
f 46/46/46 44/44/44 10/10/10 
f 17/17/17 13/13/13 15/15/15 
f 40/40/40 14/14/14 12/12/12 
f 42/42/42 40/40/40 12/12/12 
f 38/38/38 16/16/16 14/14/14 
f 40/40/40 38/38/38 14/14/14 
f 38/38/38 18/18/18 16/16/16 
f 36/36/36 20/20/20 18/18/18 
f 38/38/38 36/36/36 18/18/18 
f 34/34/34 22/22/22 20/20/20 
f 36/36/36 34/34/34 20/20/20 
f 32/32/32 24/24/24 22/22/22 
f 34/34/34 32/32/32 22/22/22 
f 29/29/29 26/26/26 24/24/24 
f 32/32/32 29/29/29 24/24/24 
f 99/99/99 28/28/28 30/30/30 
f 99/99/99 78/78/78 28/28/28 
f 56/56/56 31/31/31 33/33/33 
f 80/80/80 31/31/31 56/56/56 
f 100/100/100 31/31/31 80/80/80 
f 51/51/51 33/33/33 35/35/35 
f 53/53/53 33/33/33 51/51/51 
f 56/56/56 33/33/33 53/53/53 
f 49/49/49 35/35/35 37/37/37 
f 51/51/51 35/35/35 49/49/49 
f 47/47/47 37/37/37 39/39/39 
f 49/49/49 37/37/37 47/47/47 
f 45/45/45 39/39/39 41/41/41 
f 47/47/47 39/39/39 45/45/45 
f 45/45/45 41/41/41 43/43/43 
f 79/79/79 55/55/55 58/58/58 
f 77/77/77 59/59/59 57/57/57 
f 79/79/79 58/58/58 60/60/60 
f 75/75/75 61/61/61 59/59/59 
f 81/81/81 60/60/60 62/62/62 
f 77/77/77 75/75/75 59/59/59 
f 81/81/81 79/79/79 60/60/60 
f 73/73/73 63/63/63 61/61/61 
f 83/83/83 62/62/62 64/64/64 
f 75/75/75 73/73/73 61/61/61 
f 83/83/83 81/81/81 62/62/62 
f 71/71/71 65/65/65 63/63/63 
f 85/85/85 64/64/64 66/66/66 
f 73/73/73 71/71/71 63/63/63 
f 85/85/85 83/83/83 64/64/64 
f 69/69/69 67/67/67 65/65/65 
f 85/85/85 66/66/66 68/68/68 
f 71/71/71 69/69/69 65/65/65 
f 87/87/87 68/68/68 70/70/70 
f 87/87/87 85/85/85 68/68/68 
f 89/89/89 70/70/70 72/72/72 
f 89/89/89 87/87/87 70/70/70 
f 93/93/93 72/72/72 74/74/74 
f 91/91/91 89/89/89 72/72/72 
f 93/93/93 91/91/91 72/72/72 
f 95/95/95 74/74/74 76/76/76 
f 95/95/95 93/93/93 74/74/74 
f 97/97/97 76/76/76 78/78/78 
f 97/97/97 95/95/95 76/76/76 
f 99/99/99 97/97/97 78/78/78 
f 98/98/98 80/80/80 82/82/82 
f 100/100/100 80/80/80 98/98/98 
f 96/96/96 82/82/82 84/84/84 
f 98/98/98 82/82/82 96/96/96 
f 94/94/94 84/84/84 86/86/86 
f 96/96/96 84/84/84 94/94/94 
f 92/92/92 86/86/86 88/88/88 
f 94/94/94 86/86/86 92/92/92 
f 92/92/92 88/88/88 90/90/90 
#end 92 faces

#begin properties
#U3DPROPERTIES_00 table {Mesh table {EdgesUVW table {Selected ints { 53 0 } } SymPlane table {Point vector3d 0 0 0  Normal vector3d 1 0 0  Threshold double 0.01 Enabled bool false } Maps table {Density table {PrimType string "Polygon" Size int 1 DefaultValue double 1 ScaleType string "Log" MinValue double 0.1 MaxValue double 4 Data doubles { r 92 1 } } Pin table {PrimType string "Vertex" Size int 1 DefaultValue double 0 ScaleType string "Normalized" MinValue double 0 MaxValue double 1 Data doubles { r 100 0 } } Protect table {PrimType string "Vertex" Size int 1 DefaultValue double 0 ScaleType string "Normalized" MinValue double -1 MaxValue double 1 Data doubles { r 100 0 } } } } }
#end properties

#begin 0 fatal error vertex (that Unfold3D cannot handle)
#end 0 fatal error vertex (that Unfold3D cannot handle)

#begin 0 error vertex
#end 0 error vertex
